<?xml version="1.0" encoding="UTF-8" standalone="no"?><!DOCTYPE svg PUBLIC "-//W3C//DTD SVG 1.1//EN" "http://www.w3.org/Graphics/SVG/1.1/DTD/svg11.dtd"><svg width="100%" height="100%" viewBox="0 0 271 103" version="1.1" xmlns="http://www.w3.org/2000/svg" xmlns:xlink="http://www.w3.org/1999/xlink" xml:space="preserve" xmlns:serif="http://www.serif.com/" style="fill-rule:evenodd;clip-rule:evenodd;stroke-linejoin:round;stroke-miterlimit:1.41421;"><path d="M0,7.048c23.86,1.091 42.936,20.862 42.936,45.008c0,14.191 11.538,25.739 25.722,25.739c14.184,0 25.722,-11.547 25.722,-25.74c0,-14.198 -11.542,-25.741 -25.724,-25.741l0,-6.444c17.73,0 32.156,14.437 32.156,32.185c0,17.744 -14.425,32.18 -32.154,32.18c-17.73,0 -32.154,-14.437 -32.154,-32.179l0.003,0c0,-20.6 -16.195,-37.483 -36.507,-38.569l0,-6.44l0,0.001Zm0,19.112l0,-6.38c16.97,0.909 30.488,14.817 30.488,31.78c0,21.06 17.368,38.192 38.714,38.192l0,-0.004c21.346,0 38.716,-17.131 38.716,-38.187l-0.003,0l0.003,-0.005c0,-24.567 20.26,-44.556 45.165,-44.556c24.905,0 45.164,19.989 45.164,44.556l-6.45,0c0,-21.059 -17.368,-38.194 -38.714,-38.194c-21.348,0 -38.717,17.135 -38.717,38.194l0.004,0l-0.004,0.005c0,24.566 -20.26,44.552 -45.164,44.552l0,0.005c-24.909,0 -45.165,-19.991 -45.165,-44.557c0,-13.455 -10.63,-24.502 -24.037,-25.401Zm0,7.153c9.274,1.255 16.447,9.222 16.447,18.84l-6.334,0c0,-6.114 -4.349,-11.229 -10.113,-12.418l0,-6.422Zm271,-26.288l0,6.417c-0.51,-0.02 -1.02,-0.03 -1.53,-0.03l0,0.001c-21.376,0 -38.767,17.275 -38.767,38.5l-0.005,0.003c0,10.61 -8.694,19.249 -19.38,19.249l0,-6.416c7.122,0 12.918,-5.759 12.918,-12.833l0.007,-0.004c0,-24.765 20.286,-44.912 45.227,-44.912c0.512,0 1.022,0.008 1.53,0.025Zm0,12.873l0,6.443c-0.434,-0.021 -0.87,-0.032 -1.31,-0.032c-14.268,0 -25.872,11.548 -25.872,25.742l0.007,0.002c0,17.734 -14.49,32.16 -32.303,32.182c-17.815,-0.022 -32.298,-14.45 -32.298,-32.182l-0.002,0c0,-14.196 -11.605,-25.748 -25.87,-25.748c-14.264,0 -25.87,11.55 -25.87,25.747c0,14.194 11.606,25.74 25.868,25.74l0,6.44c-17.83,0 -32.336,-14.433 -32.338,-32.18c0.002,-17.747 14.509,-32.183 32.34,-32.183c17.834,0 32.34,14.438 32.34,32.184l-0.002,0c0,14.181 11.585,25.722 25.832,25.74c14.25,-0.018 25.834,-11.559 25.834,-25.74l-0.002,-0.002c0,-17.744 14.503,-32.179 32.336,-32.179c0.439,0 0.876,0.009 1.31,0.026Zm0,19.609c-0.615,-0.089 -1.235,-0.134 -1.856,-0.134c-7.098,0 -12.872,5.775 -12.872,12.872l-0.015,0.007c0,24.84 -20.209,45.054 -45.048,45.054c-24.84,0 -45.044,-20.213 -45.044,-45.054l6.432,0c0,21.295 17.322,38.62 38.612,38.62l0,-0.001c21.292,0 38.616,-17.324 38.616,-38.619l0.013,-0.007c0,-10.644 8.66,-19.308 19.305,-19.308l0,0.003l0,-0.003c0.627,0 1.246,0.03 1.857,0.088l0,6.482Zm-202.273,31.658c-10.481,0 -19.01,-8.53 -19.01,-19.006l6.336,0c0,6.983 5.688,12.666 12.674,12.666l0,0.004c6.989,0 12.676,-5.685 12.677,-12.67l0,-0.01c0,-6.992 -5.685,-12.677 -12.677,-12.677l0,-6.33c10.486,0 19.015,8.524 19.014,19.006l-0.002,0l0.002,0.01c0,10.48 -8.528,19.01 -19.013,19.007l0,-0.004l0,0.004l-0.001,0Zm65.355,-19.011c0,-10.486 8.53,-19.013 19.012,-19.013l0,6.335c-6.988,0 -12.672,5.686 -12.672,12.678c0,6.99 5.684,12.676 12.672,12.676l0,6.335c-10.483,0 -19.012,-8.528 -19.012,-19.011Z" style="fill:#d62829;"/></svg>